<?xml version="1.0" encoding="utf-8"?>
<!-- Generator: Adobe Illustrator 25.2.1, SVG Export Plug-In . SVG Version: 6.00 Build 0)  -->
<svg version="1.1" id="dove" xmlns="http://www.w3.org/2000/svg" xmlns:xlink="http://www.w3.org/1999/xlink" x="0px" y="0px"
	 viewBox="0 0 368.7 331.3" style="enable-background:new 0 0 368.7 331.3;" xml:space="preserve">
<style type="text/css">
	.st0{fill:#E9B627;}
</style>
<g>
	<path class="st0" d="M157.2,312.8c-25,0.1-49.9,0-74.9,0c-13.4,0-26.9,0-40.8,0V18.5h154c0,4.3,0,8,0,11.7
		c0,21.2-0.1,42.4-0.1,63.5c0,10.5,2.3,12.8,12.7,12.9c15.4,0.1,30.8,0,46.1,0h26.2c0,13.7,0,26.4,0,39.1c0,5.9,1.8,10.7,8.4,10.9
		c7.2,0.2,9.1-4.8,9.1-11.1c-0.1-14.8,0.4-29.6-0.3-44.4c-0.2-4.1-2.3-9.1-5.1-12.1c-26-27.7-52.5-55-78.6-82.6
		c-4.4-4.6-9.1-6.2-15.3-6.2C145.5,0.5,92.4,0.4,39.3,0.4c-13.9,0-15.6,1.5-15.5,15.3c0.2,99.8,0.5,199.6,0.8,299.5
		c0,11,3.9,14.9,14.9,15.2c8,0.2,16.1,0,24.1,0c31.3,0,62.7,0,94,0c6,0,11.7-1.2,11.8-8.5C169.4,314.1,163.7,312.8,157.2,312.8z"/>
	<path class="st0" d="M300.4,189.8c-7.8-7.6-11-7.6-18.8,0.2c-26.7,26.6-53.3,53.3-80,80c-1.8,1.8-3.9,3.9-4.6,6.2
		c-4.3,14.5-8.5,28.9-12.1,43.6c-1.6,6.3,2.4,9.6,9.5,10.6c15.2-3.7,31.3-7.6,47.3-11.6c1.5-0.4,2.9-1.9,4.1-3.1
		c27.5-27.4,55-54.9,82.5-82.4c5.3-5.3,5.3-10.5-0.2-15.8C318.8,208.3,309.7,198.9,300.4,189.8z"/>
	<path class="st0" d="M349.2,197.3c-9.9-9.8-19.6-19.7-29.6-29.4c-2.1-2.1-5.1-3.3-8.5-5.5c-2.7,2.2-6.6,3.9-6.9,6
		c-0.5,3.5,0.2,8.3,2.4,10.7c9.8,10.7,20.3,20.6,30.5,30.9c4.1,4.2,8.9,5,13,0.9C354.6,206.5,353.6,201.7,349.2,197.3z"/>
</g>
<g>
	<path class="st0" d="M235.5,151.8h-149c-5.7,0-10.3-4.6-10.3-10.3l0,0c0-5.7,4.6-10.3,10.3-10.3h149c5.7,0,10.3,4.6,10.3,10.3l0,0
		C245.8,147.2,241.2,151.8,235.5,151.8z"/>
	<path class="st0" d="M214.2,210.9H86.5c-5.7,0-10.3-4.6-10.3-10.3l0,0c0-5.7,4.6-10.3,10.3-10.3h127.7c5.7,0,10.3,4.6,10.3,10.3
		l0,0C224.5,206.2,219.9,210.9,214.2,210.9z"/>
	<path class="st0" d="M161.3,269.9H86.5c-5.7,0-10.3-4.6-10.3-10.3l0,0c0-5.7,4.6-10.3,10.3-10.3h74.8c5.7,0,10.3,4.6,10.3,10.3l0,0
		C171.6,265.3,167,269.9,161.3,269.9z"/>
</g>
</svg>
