<?xml version="1.0" encoding="utf-8"?>
<!-- Generator: Adobe Illustrator 25.0.0, SVG Export Plug-In . SVG Version: 6.00 Build 0)  -->
<svg version="1.1" id="Layer_1" xmlns="http://www.w3.org/2000/svg" xmlns:xlink="http://www.w3.org/1999/xlink" x="0px" y="0px"
	 viewBox="0 0 144.5 144.6" style="enable-background:new 0 0 144.5 144.6;" xml:space="preserve">
<style type="text/css">
	.st0{fill:#FFFFFF;}
</style>
<g>
	<g>
		<path class="st0" d="M143.7,95.2c-2.6-12.2-9.9-19.1-22.3-19.7c-13.1-0.6-26.3-0.3-39.4-0.3c-0.4,0-0.8,0.2-1.4,0.4
			c0.4,0.6,0.6,1.1,0.9,1.4c9.1,9.1,18,18.3,27.4,27c2.7,2.5,6.3,4.4,9.9,5.6c7.1,2.4,13.7-0.5,19.9-3.7
			C145.3,102.7,145.2,102.5,143.7,95.2z M93.7,54.9c-4.5,4.4-9,8.7-13.9,13.5c1.2,0.6,1.3,0.7,1.5,0.7c13.3,0,26.5,0.1,39.8-0.2
			c5.6-0.1,10.7-2,14.7-6.2c5.2-5.4,7.1-12.3,8.6-19.3c0.2-0.7-0.5-1.9-1.1-2.4c-12.9-9.6-24.7-11.1-36.7,1
			C102.4,46.3,98,50.6,93.7,54.9z M66.4,62.1c0.6,0.6,1.4,1.2,2.3,1.9c0.3-0.8,0.5-1.2,0.5-1.5c0-13,0-26.1-0.2-39.1
			c-0.1-4.5-1.2-8.9-4.2-12.6C59.2,4.1,51.6,1.6,43.5,0.2C42.7,0,41.5,0.6,41,1.2c-9,11.7-11.3,24,0.2,35.7
			C49.6,45.3,58,53.7,66.4,62.1z M87.8,92c-3.8-3.8-7.5-7.6-11.8-11.9c-0.3,1.4-0.5,1.9-0.5,2.4c0.1,13.4,0,26.8,0.3,40.2
			c0.2,7.5,4.1,13.2,10.7,16.7c3.1,1.7,6.4,3,9.7,4c6.3,1.9,6.4,1.7,9.9-3.8c7.5-11.9,6.4-22.6-3.4-32.6C97.9,101.9,92.8,97,87.8,92
			z M105.5,34c4.2-4.5,5.7-10.3,4.7-16.7c-1-5.9-3.6-11-6.8-15.8C102.8,0.7,101-0.1,100,0C84.4,2.2,75,9.6,75.2,27
			c0.1,6.6,0,13.3,0,19.9c0,5.5,0,11.1,0,16.8c0.9-0.1,1.2,0,1.3-0.1C86.2,53.8,96.1,44.1,105.5,34z M55.3,85.1
			c2.9-2.9,6.1-5.5,9.2-8.3c-0.3-0.3-0.5-0.7-0.8-1c-0.7-0.1-1.4-0.4-2.1-0.3c-12.7,0-25.5-0.1-38.2,0.1
			c-8.7,0.1-15.1,4.4-18.8,12.2c-1.9,4-3,8.4-4.2,12.7c-0.2,0.8,0.2,2.2,0.8,2.7c4.5,3.7,9.5,6.5,15.4,7.5
			c8.8,1.4,15.5-2.4,21.5-8.4C43.8,96.6,49.5,90.8,55.3,85.1z M26.1,69.3c6.7,0,13.5,0,20.2,0H64c-0.4-0.9-0.4-1.2-0.6-1.4
			C53.7,58.2,44.1,48.4,34.2,39c-3.5-3.3-7.9-4.9-12.9-4.9c-7.7,0-14,3.4-20.1,7.4c-0.6,0.4-1.3,1.6-1.2,2.4
			C1.9,57.5,7.8,69.3,26.1,69.3z M69.4,80.4c-0.9,0.4-1.2,0.5-1.4,0.7c-9.5,9.6-19.2,19.2-28.6,29c-3.9,4.1-5.5,9.3-5.1,15
			c0.5,6.9,3.6,12.7,7.3,18.2c0.5,0.7,1.8,1.3,2.6,1.2c5.9-0.8,11.5-2.3,16.4-5.9c6.8-5,8.7-12.1,8.8-20c0.1-8.8,0-17.5,0-26.3
			C69.4,88.5,69.4,84.7,69.4,80.4z"/>
	</g>
</g>
</svg>
