<?xml version="1.0" encoding="utf-8"?>
<!-- Generator: Adobe Illustrator 25.0.1, SVG Export Plug-In . SVG Version: 6.00 Build 0)  -->
<svg version="1.1" id="Layer_1" xmlns="http://www.w3.org/2000/svg" xmlns:xlink="http://www.w3.org/1999/xlink" x="0px" y="0px"
	 viewBox="0 0 95.1 105.3" style="enable-background:new 0 0 95.1 105.3;" xml:space="preserve">
<style type="text/css">
	.st0{fill:#970028;}
</style>
<path class="st0" d="M51.1,0h-2.9C36.9,0.9,27.9,10.4,27.9,21.8h43.9C71.8,10.1,62.6,0.6,51.1,0z M27.9,69.9c-2.5,0-4.4,1.9-4.4,4.4
	V96h8.8V74.3C32.3,72,30.3,69.9,27.9,69.9z M47,33.5v14.6h5.9V33.5c0-1.6-1.3-2.9-2.9-2.9C48.3,30.6,47,31.9,47,33.5z M71.5,48.6
	V26.2h-4.4v21.9c-8.5,0.1-15.9,5.1-19.5,12.4c-2.9-6.1-8.8-10.7-15.7-12V26.2h-4.4v21.9C15.7,48.3,6,58.1,6,70.1v35.1h4.4V70.1
	c0-9.5,7.8-17.4,17.3-17.6c0.1,0,0.1,0,0.3,0c0.6,0,1.3,0,1.9,0.1c0.7,0.1,1.5,0.1,2.2,0.4c7.8,1.9,13.5,8.8,13.5,17.1v35.1h43.9
	v-35C89.4,59.4,81.6,50.5,71.5,48.6z M71.8,96.1H63V74.3c0-2.5,1.9-4.4,4.4-4.4s4.4,1.9,4.4,4.4V96.1z"/>
</svg>
