<?xml version="1.0" encoding="utf-8"?>
<!-- Generator: Adobe Illustrator 25.2.1, SVG Export Plug-In . SVG Version: 6.00 Build 0)  -->
<svg version="1.1" id="Layer_1" xmlns="http://www.w3.org/2000/svg" xmlns:xlink="http://www.w3.org/1999/xlink" x="0px" y="0px"
	 viewBox="0 0 95.1 90" style="enable-background:new 0 0 95.1 90;" xml:space="preserve">
<style type="text/css">
	.st0{fill:#E9B627;}
</style>
<path class="st0" d="M83.5,59.4c0.6-0.1,1-0.4,1.5-0.8c1.3-1.3,1.3-3.5,0-4.7l-3.6-3.6l3.6-3.6c1.3-1.3,1.3-3.5,0-4.7
	c-1.3-1.3-3.5-1.3-4.7,0l-1.2,1.1c0-0.8-0.3-1.7-1-2.3c-0.3-0.3-0.7-0.4-1-0.7C77,39.5,77,39,76.9,38.3l0.9,0.9
	c1.3,1.3,3.5,1.3,4.7,0c1.3-1.3,1.3-3.5,0-4.7L78.9,31l3.6-3.6c1.3-1.3,1.3-3.5,0-4.7c-1.1-1.2-3.2-1.2-4.5,0l-3.4-3.4l3.6-3.6
	c1.3-1.3,1.3-3.5,0-4.7c-1.3-1.3-3.5-1.3-4.7,0l-3.6,3.6L69.3,14c0.7-1.2,0.4-2.8-0.6-3.9c-1.3-1.3-3.4-1.3-4.7,0
	c-0.3,0-0.7,0-0.9,0.1l-0.8-0.8L66,6c1.3-1.3,1.3-3.5,0-4.7c-1.3-1.3-3.5-1.3-4.7,0l-3.8,3.5l-3.6-3.6c-1.3-1.3-3.5-1.3-4.7,0
	c-0.1,0.1-0.2,0.2-0.3,0.3V1.4c-1.3-1.3-3.5-1.3-4.7,0L40.7,5l-3.6-3.6c-1.3-1.3-3.5-1.3-4.7,0c-1.3,1.3-1.3,3.5,0,4.7L36,9.7
	L35.5,10l-1.3-1.3c-1.3-1.3-3.5-1.3-4.7,0c-1,1-1.2,2.3-0.8,3.6l-1.8,1.8l-3.6-3.6c-1.3-1.3-3.5-1.3-4.7,0c-1.3,1.3-1.3,3.5,0,4.7
	l3.6,3.6l-2,2l-0.6-0.6c-1.3-1.3-3.5-1.3-4.7,0c-1.3,1.3-1.3,3.5,0,4.7l3.6,3.6L15,32c-1.3,1.3-1.3,3.5,0,4.7c1,1,2.6,1.2,3.8,0.7
	c-0.1,0.9-0.3,1.8-0.4,2.7l-2.2-2.2c-1.3-1.3-3.5-1.3-4.7,0c-1.3,1.3-1.3,3.5,0,4.7l3.6,3.6l-3.6,3.6c-1.3,1.3-1.3,3.5,0,4.7
	c1.3,1.3,3.5,1.3,4.7,0l2.2-2.2c0,0.2,0,0.3,0.1,0.6L0,71.4h10.5v13.2l14.1-14.1c0.4,0.7,0.9,1.3,1.3,2l-3.1,3.1
	c-1.3,1.3-1.3,3.5,0,4.7c1.3,1.3,3.5,1.3,4.7,0l2.8-2.8c0.3,0.3,0.8,0.7,1.1,1l2,2l-3.6,3.6c-1.3,1.3-1.3,3.5,0,4.7
	c1.3,1.3,3.5,1.3,4.7,0l3.6-3.6l3.6,3.6c1.3,1.3,3.5,1.3,4.7,0c1.1-1,1.2-2.7,0.6-3.9c0.2,0,0.4,0,0.7,0c1.1,0,2.2-0.1,3.2-0.2
	c-0.8,1.3-0.7,3,0.4,4.1c1.3,1.3,3.5,1.3,4.7,0l3.6-3.6l3.6,3.6c1.3,1.3,3.5,1.3,4.7,0c1.3-1.3,1.3-3.5,0-4.7l-3.6-3.6l1.9-1.9
	l1.2,1.2c1.3,1.3,3.5,1.3,4.7,0c1.3-1.3,1.3-3.5,0-4.7l-2.8-2.8c0.4-0.7,0.9-1.2,1.2-1.9l0,0l14,14v-13h10.6L83.5,59.4z M61.5,17.3
	c0.7,0.7,0.7,1.7,0,2.3c-0.7,0.7-1.7,0.7-2.3,0c-0.7-0.7-0.7-1.7,0-2.3C59.8,16.6,60.9,16.6,61.5,17.3z M56.7,10
	c0.7-0.7,1.7-0.7,2.3,0c0.7,0.7,0.7,1.7,0,2.3c-0.7,0.7-1.7,0.7-2.3,0C56.1,11.7,56.1,10.7,56.7,10z M48.9,6.1
	C49,6,49.1,5.9,49.1,5.8c0,0,0,0.1,0.1,0.1l1.5,1.5c-1-0.1-1.9-0.2-2.9-0.2L48.9,6.1z M39.8,10.3c0.7-0.7,1.7-0.7,2.3,0
	c0.7,0.7,0.7,1.7,0,2.3c-0.7,0.7-1.7,0.7-2.3,0C39.1,11.9,39.1,10.9,39.8,10.3z M36.6,15.8c0.7-0.7,1.7-0.7,2.3,0
	c0.7,0.7,0.7,1.7,0,2.3c-0.7,0.7-1.7,0.7-2.3,0C36,17.5,36,16.5,36.6,15.8z M20.9,47.5c-0.7,0.7-1.7,0.7-2.3,0
	c-0.7-0.7-0.7-1.7,0-2.3c0.7-0.7,1.7-0.7,2.3,0C21.6,45.7,21.6,46.8,20.9,47.5z M24.5,29.7c-0.7,0.7-1.7,0.7-2.3,0s-0.7-1.7,0-2.3
	s1.7-0.7,2.3,0S25.1,29,24.5,29.7z M25.8,17.5c0.7-0.7,1.7-0.7,2.3,0c0.7,0.7,0.7,1.7,0,2.3c-0.7,0.7-1.7,0.7-2.3,0
	C25.1,19.3,25.1,18.2,25.8,17.5z M28.4,50.8c-0.7,0.7-1.7,0.7-2.3,0c-0.7-0.7-0.7-1.7,0-2.3c0.7-0.7,1.7-0.7,2.3,0
	C29,49,29,50.1,28.4,50.8z M32.3,73.1c-0.7,0.7-1.7,0.7-2.3,0c-0.7-0.7-0.7-1.7,0-2.3s1.7-0.7,2.3,0C33,71.5,33,72.5,32.3,73.1z
	 M39.3,81.6c-0.7,0.7-1.7,0.7-2.3,0c-0.7-0.7-0.7-1.7,0-2.3c0.7-0.7,1.7-0.7,2.3,0C40,80,40,81,39.3,81.6z M61,81.6
	c-0.7,0.7-1.7,0.7-2.3,0C58,81,58,80,58.6,79.3c0.7-0.7,1.7-0.7,2.3,0C61.5,80,61.5,81,61,81.6z M65.2,72.7c-0.7,0.7-1.7,0.7-2.3,0
	c-0.7-0.7-0.7-1.7,0-2.3c0.7-0.7,1.7-0.7,2.3,0C65.9,71,65.9,72,65.2,72.7z M66.2,40.9c-1.3-1.3-3.5-1.3-4.7,0
	c-1.3,1.3-1.3,3.5,0,4.7l3.6,3.6l-3.6,3.6c-1.3,1.3-1.3,3.5,0,4.7c0.4,0.4,1,0.8,1.6,0.9c-0.9,1.3-0.7,3,0.4,4.2l0.1,0.1
	c-0.4,0.8-0.9,1.7-1.3,2.5l-1.9-1.9c-1.3-1.3-3.5-1.3-4.7,0c-1.3,1.3-1.3,3.5,0,4.7l2.3,2.3c-0.7,0.7-1.3,1.2-2.1,1.7
	c-1.3-1.1-3.4-1.1-4.6,0.1c-0.7,0.7-1,1.5-1,2.3c-0.9,0.2-1.8,0.3-2.8,0.3c-0.1,0-0.2,0-0.3,0c0.1-0.9-0.2-1.9-1-2.6
	c-1.3-1.3-3.5-1.3-4.7,0L41,72.9c-1.2-0.7-2.5-1.6-3.5-2.6l2-2c1.3-1.3,1.3-3.5,0-4.7c-1.3-1.3-3.5-1.3-4.7,0l-1.7,1.5
	c-1.6-2.5-2.8-5.4-3.7-8.5l1.2,1.2c1.3,1.3,3.5,1.3,4.7,0c1.3-1.3,1.3-3.5,0-4.7l-3.6-3.6l3.6-3.6c1.3-1.3,1.3-3.5,0-4.7
	c-1.3-1.3-3.5-1.3-4.7,0L28,43.8c0-0.4,0.1-1,0.1-1.5c0.8-1,0.9-2.3,0.4-3.5c0.1-0.4,0.1-0.8,0.2-1.2c0.9,0.1,1.9-0.2,2.6-1
	c1.3-1.3,1.3-3.5,0-4.7l-0.7-0.7c0.6-1.2,1.1-2.3,1.7-3.5c1,0.1,2-0.2,2.7-0.9c1-1,1.2-2.3,0.8-3.6l1.8-1.8l3.6,3.6
	c1.3,1.3,3.5,1.3,4.7,0c1.3-1.3,1.3-3.5,0-4.7L43.4,18c0.1,0,0.3-0.1,0.4-0.1L44,18c1.3,1.3,3.5,1.3,4.7,0c0.1-0.1,0.2-0.2,0.2-0.3
	c0,0,0,0.1,0.1,0.1c1,1,2.6,1.2,3.8,0.7c0.6,0.2,1.1,0.6,1.7,0.9l-2.8,2.8c-1.3,1.3-1.3,3.5,0,4.7c1.3,1.3,3.5,1.3,4.7,0l3.1-3.1
	c0.2,0.3,0.6,0.6,0.8,0.9c-0.2,1.1,0,2.2,0.9,3.1c0.4,0.4,1.1,0.8,1.7,0.9c1,1.9,1.9,4,2.6,6.3c-1.1,1.3-1.1,3.2,0.2,4.6
	c0.3,0.3,0.7,0.6,1,0.7c0.1,0.6,0.1,1.1,0.2,1.8L66.2,40.9z M73,29.9c0.7-0.7,1.7-0.7,2.3,0c0.7,0.7,0.7,1.7,0,2.3
	c-0.7,0.7-1.7,0.7-2.3,0C72.5,31.7,72.5,30.6,73,29.9z M68.6,18.2c0.7-0.7,1.7-0.7,2.3,0c0.7,0.7,0.7,1.7,0,2.3
	c-0.7,0.7-1.7,0.7-2.3,0C68,20,68,18.9,68.6,18.2z M68.6,50.4c-0.7-0.7-0.7-1.7,0-2.3c0.7-0.7,1.7-0.7,2.3,0c0.7,0.7,0.7,1.7,0,2.3
	C70.4,51,69.3,51,68.6,50.4z M73,67.3c-0.7,0.7-1.7,0.7-2.3,0s-0.7-1.7,0-2.3c0.7-0.7,1.7-0.7,2.3,0C73.7,65.7,73.7,66.7,73,67.3z
	 M77,51.5c-0.7,0.7-1.7,0.7-2.3,0c-0.7-0.7-0.7-1.7,0-2.3c0.7-0.7,1.7-0.7,2.3,0C77.6,49.8,77.6,50.8,77,51.5z"/>
</svg>
