<?xml version="1.0" encoding="utf-8"?>
<!-- Generator: Adobe Illustrator 25.0.1, SVG Export Plug-In . SVG Version: 6.00 Build 0)  -->
<svg version="1.1" id="Layer_1" xmlns="http://www.w3.org/2000/svg" xmlns:xlink="http://www.w3.org/1999/xlink" x="0px" y="0px"
	 viewBox="0 0 95.1 105.3" style="enable-background:new 0 0 95.1 105.3;" xml:space="preserve">
<style type="text/css">
	.st0{fill-rule:evenodd;clip-rule:evenodd;fill:#970028;}
</style>
<path class="st0" d="M32.6,105v-1.8c-1.1-0.3-2.3-0.7-3.6-1.2c-1.3-0.5-1.8-1.7-2.1-3.4c-3.4-19.5-5.7-40.3-6.5-62.1h53.7
	c-0.7,21.8-3,42.6-6.5,62.1c-0.3,1.7-0.8,2.9-2.1,3.4c-1.3,0.5-2.5,0.9-3.6,1.2v1.8H32.6L32.6,105z M20.3,35c0-1.1-0.1-2.2-0.1-3.4
	h53.9c0,1.1-0.1,2.3-0.1,3.4H20.3L20.3,35z M20.2,30.1c0-1.1,0-2.2-0.1-3.4h54.1c0,1.1,0,2.3-0.1,3.4H20.2L20.2,30.1z M20.2,25.3
	c0-1.2,0-2.3,0-3.5h54.2c0,1.2,0,2.3,0,3.5H20.2L20.2,25.3z M74.7,19.8c0.5,0,0.9-0.4,0.9-0.9v-3.2c0-0.5-0.4-1-0.9-1
	c-0.3-6.3-3.5-10-8.6-11.1V0.9c0-0.4-0.3-0.6-0.6-0.6H29c-0.4,0-0.6,0.3-0.6,0.6v2.7c-5.1,1.1-8.3,4.7-8.6,11.1
	c-0.5,0.1-0.9,0.5-0.9,1v3.2c0,0.5,0.4,0.9,0.9,0.9H74.7z"/>
</svg>
