<?xml version="1.0" encoding="utf-8"?>
<!-- Generator: Adobe Illustrator 25.0.1, SVG Export Plug-In . SVG Version: 6.00 Build 0)  -->
<svg version="1.1" id="Layer_1" xmlns="http://www.w3.org/2000/svg" xmlns:xlink="http://www.w3.org/1999/xlink" x="0px" y="0px"
	 viewBox="0 0 90 90" style="enable-background:new 0 0 90 90;" xml:space="preserve">
<style type="text/css">
	.st0{fill:#970028;}
</style>
<path class="st0" d="M45,52c7.6,0,13.8-6.2,13.8-13.8v-6.9c0-7.6-6.2-13.8-13.8-13.8s-13.8,6.2-13.8,13.8v6.9
	C31.2,45.8,37.3,52,45,52z M76.1,76.2h-3.5v-4.7L54.1,90H83V61.1L76.1,68V76.2z M7,0.3V90h37.3L83,51.4V0.3H7z M76.1,38.7L56.6,58.1
	L53,57.2l-8,8l-8.1-7.9l-17,4.1c-1.5,0.3-2.6,1.7-2.6,3.3v11.5H14v-69h62.1V38.7z"/>
</svg>
